<?xml version="1.0" encoding="utf-8"?>
<!-- Generator: Adobe Illustrator 16.0.4, SVG Export Plug-In . SVG Version: 6.00 Build 0)  -->
<!DOCTYPE svg PUBLIC "-//W3C//DTD SVG 1.1//EN" "http://www.w3.org/Graphics/SVG/1.1/DTD/svg11.dtd">
<svg version="1.1" id="icone-logo-famosos" xmlns="http://www.w3.org/2000/svg" xmlns:xlink="http://www.w3.org/1999/xlink" x="0px" y="0px"
	 width="620px" height="500px" viewBox="0 0 620 500" style="enable-background:new 0 0 620 500;" xml:space="preserve">
<g>
	<g>
		<path d="M80.859,159.422H59.27c0.274-3.298,0.615-6.804,1.026-10.518c0.41-3.711,0.984-7.163,1.724-10.352
			c0.738-3.19,1.724-5.828,2.955-7.919c1.231-2.091,2.805-3.136,4.721-3.136c0.984,0,1.696,0.14,2.134,0.414
			c-0.219,1.495-0.15,2.861,0.206,4.105c0.355,1.245,0.916,2.335,1.683,3.275c0.766,0.939,1.696,1.673,2.791,2.196
			c1.095,0.526,2.271,0.816,3.529,0.871c1.916,0.056,3.544-0.26,4.885-0.945c1.341-0.686,2.422-1.55,3.243-2.592
			s1.423-2.167,1.806-3.373c0.383-1.207,0.574-2.304,0.574-3.292c0-3.73-1.367-6.748-4.104-9.051
			c-2.736-2.304-6.677-3.456-11.821-3.456c-5.746,0-10.727,1.056-14.939,3.167c-4.215,2.112-7.771,5.102-10.673,8.968
			c-2.9,3.867-5.212,8.489-6.937,13.864c-1.724,5.375-2.941,11.299-3.653,17.772H24.873L23.396,171.6l13.382-0.165
			c-0.821,11.099-1.383,18.858-1.684,23.281c-0.301,4.422-0.615,8.968-0.943,13.638c-0.329,4.669-0.672,9.231-1.027,13.678
			c-0.355,4.453-0.684,8.694-0.984,12.733c-0.302,4.039-0.589,7.652-0.862,10.838c-0.273,3.293-0.615,6.797-1.026,10.504
			c-0.41,3.709-0.984,7.155-1.724,10.344c-0.739,3.185-1.724,5.821-2.955,7.91c-1.231,2.088-2.805,3.132-4.721,3.132
			c-0.984,0-1.696-0.14-2.134-0.414c0.219-1.495,0.15-2.862-0.206-4.104c-0.354-1.246-0.917-2.336-1.683-3.275
			s-1.696-1.673-2.791-2.195c-1.095-0.527-2.271-0.816-3.529-0.872c-1.916-0.055-3.544,0.274-4.885,0.987s-2.422,1.619-3.243,2.717
			c-0.82,1.096-1.423,2.262-1.806,3.495S0,276.177,0,277.164c0,3.73,1.382,6.691,4.146,8.887c2.764,2.193,6.718,3.291,11.862,3.291
			c5.746,0,10.727-1.057,14.94-3.17c4.214-2.115,7.784-5.107,10.713-8.973c2.928-3.873,5.267-8.484,7.019-13.835
			c1.751-5.354,3.01-11.294,3.776-17.828c0.383-3.182,0.766-6.777,1.149-10.783c0.383-4.009,0.766-8.222,1.149-12.639
			c0.383-4.42,0.752-8.962,1.107-13.629c0.356-4.665,0.698-9.206,1.026-13.626c0.329-4.418,0.876-12.28,1.642-23.588l21.262-0.328
			L80.859,159.422z M303.826,243.76c2.955-1.837,5.486-4.1,7.593-6.788c2.107-2.688,3.804-5.554,5.09-8.599
			c0.927-2.192,3.245-6.583,4.657-9.773c0.26,1.191,0.562,2.364,0.907,3.518c1.396,4.663,3.502,8.722,6.32,12.177
			c2.819,3.456,6.349,6.198,10.59,8.228c4.242,2.03,9.208,3.044,14.899,3.044c6.568,0,12.45-1.371,17.649-4.114
			c5.2-2.742,9.619-6.432,13.259-11.066c3.64-4.635,6.43-9.997,8.373-16.086c1.943-6.088,2.914-12.479,2.914-19.171
			c0-5.979-0.89-11.299-2.668-15.962c-1.779-4.662-4.187-8.598-7.224-11.807s-6.622-5.65-10.754-7.323
			c-4.133-1.673-8.524-2.509-13.175-2.509c-6.458,0-12.302,1.33-17.527,3.991c-5.227,2.66-9.673,6.253-13.34,10.778
			s-6.485,9.792-8.456,15.798c-0.545,1.663-1.007,3.356-1.401,5.075c-3.246,7.703-5.95,14.857-5.95,14.857
			c-2.132,5.544-8.337,17.987-9.705,19.934c-1.367,1.948-2.682,2.921-3.939,2.921c-0.603,0-1.178-0.274-1.725-0.823
			c-0.548-0.548-0.821-1.755-0.821-3.62c0-3.072,0.219-6.418,0.657-10.039c0.438-3.621,0.917-7.282,1.437-10.984
			c0.52-3.703,0.999-7.351,1.437-10.943c0.438-3.593,0.656-6.953,0.656-10.079c0-3.95-0.383-7.515-1.149-10.697
			c-0.766-3.182-1.97-5.896-3.611-8.146s-3.748-3.99-6.32-5.225c-2.573-1.234-5.638-1.851-9.195-1.851
			c-2.407,0-4.856,0.37-7.347,1.111c-2.49,0.74-4.953,2.071-7.388,3.99c-2.436,1.92-4.789,4.525-7.061,7.816
			c-2.271,3.292-4.392,7.46-6.362,12.506h-0.164c1.04-7.898,0.191-14.11-2.545-18.636s-7.251-6.788-13.544-6.788
			c-2.409,0-4.913,0.37-7.512,1.111c-2.6,0.74-5.186,2.071-7.758,3.99c-2.572,1.92-5.049,4.525-7.43,7.816
			c-2.38,3.292-4.556,7.46-6.525,12.506h-0.165c0.109-0.933,0.232-1.782,0.369-2.551c0.138-0.768,0.247-1.521,0.329-2.262
			s0.15-1.536,0.205-2.386c0.055-0.85,0.082-1.824,0.082-2.921c0-2.962-0.396-5.43-1.19-7.405c-0.794-1.975-1.847-3.552-3.16-4.731
			c-1.313-1.179-2.818-2.002-4.516-2.468c-1.696-0.466-3.448-0.699-5.254-0.699c-3.666,0-6.813,0.919-9.44,2.756
			s-4.991,3.999-6.608,6.788c-1.536,2.649-2.938,5.643-4.187,8.599c-2.359,5.589-19.02,40.992-19.041,41.037l-0.001,0
			c-1.061,2.492-1.436,3.277-2.224,4.983c-0.922,1.991-2.022,4.084-2.798,5.362c-0.664,1.092-1.451,1.783-2.135,2.222
			c-0.684,0.438-1.354,0.658-2.011,0.658c-0.603,0-1.164-0.315-1.684-0.946s-0.78-1.961-0.78-3.99c0-1.92,0.138-4.444,0.411-7.57
			c0.273-3.127,0.629-6.583,1.067-10.368c0.438-3.785,0.931-7.775,1.478-11.972c0.547-4.196,1.108-8.337,1.683-12.424
			c0.574-4.086,1.136-7.995,1.683-11.725c0.548-3.73,1.013-6.994,1.396-9.791c-4.652-1.152-9.059-2.043-13.217-2.674
			c-4.159-0.631-7.826-0.946-11.001-0.946c-8.045,0-15.214,1.549-21.507,4.649c-6.294,3.099-11.603,7.268-15.927,12.506
			c-4.323,5.238-7.606,11.313-9.851,18.225c-2.243,6.911-3.365,14.207-3.365,21.886c0,5.211,0.588,9.75,1.765,13.617
			c1.177,3.867,2.763,7.077,4.761,9.627c1.998,2.551,4.351,4.443,7.061,5.677c2.709,1.234,5.595,1.852,8.66,1.852
			c2.572,0,5.117-0.398,7.635-1.193s4.994-2.153,7.43-4.073c2.435-1.92,4.774-4.498,7.019-7.734
			c2.243-3.236,4.405-7.296,6.485-12.178h0.164c-0.219,1.427-0.384,3.058-0.493,4.896s-0.164,3.497-0.164,4.978
			c0,2.962,0.369,5.43,1.108,7.405c0.738,1.975,1.725,3.552,2.955,4.731c1.231,1.18,2.668,2.003,4.311,2.469
			c1.641,0.466,3.365,0.7,5.171,0.7c3.667,0,6.855-0.919,9.564-2.757c2.709-1.837,5.007-4.101,6.895-6.788
			c1.889-2.688,4.094-7.533,5.359-10.52c1.634-3.861,1.095-2.634,2.188-5.045l0.001,0l15.98-34.45
			c2.413-5.513,3.643-7.976,5.011-9.924c1.368-1.947,2.682-2.921,3.94-2.921c0.602,0,1.148,0.274,1.642,0.823
			c0.492,0.549,0.738,1.755,0.738,3.62c0,1.372-0.15,3.415-0.451,6.13c-0.302,2.715-0.671,5.828-1.108,9.338
			c-0.438,3.511-0.93,7.241-1.478,11.19c-0.547,3.95-1.04,7.844-1.478,11.684c-0.438,3.84-0.808,7.474-1.108,10.902
			c-0.301,3.429-0.451,6.35-0.451,8.763c0,0.549,0.055,1.742,0.164,3.58c0.109,1.837,0.219,3.333,0.329,4.484h21.589
			c-0.273-5.102-0.424-8.214-0.452-9.338c-0.026-1.125-0.04-2.071-0.04-2.839c0-3.895,0.342-8.049,1.026-12.465
			c0.684-4.416,1.601-8.79,2.75-13.124s2.504-8.488,4.062-12.465c1.561-3.977,3.202-7.474,4.926-10.491
			c1.725-3.017,3.489-5.43,5.295-7.241c1.807-1.81,3.558-2.715,5.254-2.715c1.752,0,2.983,0.562,3.694,1.687
			c0.712,1.125,1.067,2.948,1.067,5.472c0,2.578-0.205,5.855-0.616,9.832c-0.41,3.978-0.861,8.311-1.354,13
			c-0.493,4.689-0.945,9.559-1.355,14.604c-0.411,5.046-0.615,9.956-0.615,14.728c0,1.097,0.014,2.674,0.041,4.731
			c0.027,2.057,0.178,4.265,0.451,6.624h21.755c-0.11-1.042-0.191-2.167-0.247-3.373c-0.055-1.207-0.109-2.4-0.164-3.58
			c-0.055-1.179-0.096-2.29-0.123-3.333c-0.026-1.042-0.041-1.947-0.041-2.715c0-3.895,0.328-8.036,0.985-12.424
			c0.656-4.388,1.532-8.721,2.627-13s2.381-8.365,3.857-12.26c1.479-3.895,3.052-7.322,4.721-10.285s3.394-5.32,5.172-7.076
			c1.779-1.755,3.516-2.633,5.213-2.633c1.751,0,2.982,0.562,3.694,1.687c0.711,1.125,1.066,2.948,1.066,5.472
			c0,2.578-0.219,5.828-0.656,9.75c-0.438,3.922-0.916,8.037-1.437,12.342c-0.52,4.306-0.999,8.598-1.437,12.876
			c-0.438,4.278-0.657,8.091-0.657,11.437c0,2.961,0.247,5.623,0.739,7.981s1.327,4.361,2.504,6.006
			c1.177,1.646,2.777,2.894,4.802,3.744c2.025,0.851,4.598,1.275,7.718,1.275C297.505,246.517,300.871,245.598,303.826,243.76z
			 M344.073,189.454c0.794-4.114,1.915-7.707,3.365-10.779c1.451-3.071,3.202-5.512,5.254-7.322
			c2.053-1.811,4.365-2.688,6.938-2.633c1.86,0.055,3.503,0.576,4.926,1.563c1.423,0.988,2.627,2.29,3.611,3.908
			c0.985,1.618,1.793,3.497,2.422,5.636c0.63,2.14,1.122,4.375,1.478,6.706c0.355,2.332,0.589,4.662,0.698,6.994
			c0.109,2.331,0.137,4.511,0.082,6.541c-0.056,2.304-0.233,4.744-0.533,7.323c-0.302,2.578-0.739,5.142-1.313,7.693
			c-0.575,2.551-1.287,4.991-2.135,7.323c-0.849,2.331-1.874,4.375-3.079,6.13c-1.203,1.755-2.571,3.167-4.104,4.237
			c-1.532,1.07-3.255,1.604-5.172,1.604c-2.682,0-4.897-1.028-6.649-3.085c-1.751-2.057-3.146-4.649-4.187-7.775
			c-1.039-3.126-1.765-6.555-2.175-10.285c-0.411-3.73-0.615-7.296-0.615-10.696C342.884,197.929,343.28,193.568,344.073,189.454z
			 M128.427,183.941c-0.63,4.635-1.409,9.215-2.34,13.741c-0.93,4.525-2.038,8.832-3.324,12.917
			c-1.286,4.087-2.709,7.68-4.269,10.779c-1.561,3.099-3.243,5.567-5.049,7.405c-1.807,1.838-3.749,2.756-5.828,2.756
			c-1.971,0-3.53-1.316-4.68-3.949c-1.149-2.633-1.724-6.254-1.724-10.861c0-7.734,0.533-14.536,1.601-20.405
			c1.066-5.869,2.545-10.778,4.433-14.728s4.146-6.925,6.772-8.928c2.627-2.001,5.527-3.003,8.702-3.003
			c1.313,0,2.654,0.11,4.022,0.329c1.368,0.22,2.353,0.44,2.955,0.659C129.48,174.877,129.056,179.307,128.427,183.941z
			 M431.279,245.568c4.815,0,9.331-0.645,13.546-1.934c4.214-1.289,7.853-3.085,10.917-5.389c3.065-2.304,5.486-5.046,7.265-8.228
			c1.779-3.182,2.668-6.665,2.668-10.45c0-3.51-0.78-6.623-2.339-9.339c-1.56-2.714-3.558-5.169-5.993-7.363
			c-2.435-2.194-5.131-4.169-8.085-5.924c-2.955-1.755-5.829-3.429-8.62-5.02c-3.447-1.975-6.198-3.606-8.25-4.896
			c-2.053-1.289-3.626-2.455-4.721-3.497c-1.094-1.042-1.819-2.016-2.175-2.921c-0.356-0.905-0.534-1.934-0.534-3.085
			c0-1.371,0.37-2.619,1.109-3.744c0.738-1.124,1.668-2.057,2.791-2.797c1.121-0.74,2.339-1.316,3.652-1.728
			c1.313-0.412,2.572-0.617,3.776-0.617c0.712,0,1.505,0.068,2.38,0.205c0.876,0.138,1.738,0.343,2.587,0.618
			c0.848,0.274,1.642,0.617,2.38,1.029c0.739,0.411,1.328,0.918,1.765,1.522c-0.711,1.481-1.066,3.099-1.066,4.854
			c0,1.372,0.246,2.674,0.738,3.909c0.493,1.234,1.19,2.331,2.094,3.291c0.902,0.96,1.984,1.714,3.242,2.263
			c1.259,0.549,2.654,0.822,4.188,0.822c1.642,0,3.104-0.301,4.392-0.905c1.285-0.604,2.38-1.413,3.283-2.427
			s1.601-2.194,2.094-3.538c0.492-1.344,0.739-2.756,0.739-4.237c0-2.852-0.835-5.43-2.505-7.734
			c-1.669-2.304-3.844-4.251-6.525-5.842c-2.683-1.591-5.706-2.811-9.071-3.661c-3.366-0.85-6.746-1.275-10.139-1.275
			c-5.145,0-9.7,0.713-13.668,2.14c-3.968,1.426-7.306,3.291-10.016,5.595c-2.708,2.304-4.76,4.896-6.157,7.775
			c-1.395,2.88-2.093,5.801-2.093,8.763s0.466,5.595,1.396,7.898c0.931,2.304,2.34,4.485,4.228,6.542
			c1.889,2.057,4.296,4.073,7.225,6.047c2.928,1.975,6.39,4.114,10.385,6.418c2.188,1.262,4.311,2.482,6.361,3.661
			c2.053,1.18,3.858,2.359,5.419,3.538c1.56,1.18,2.805,2.427,3.735,3.744c0.93,1.317,1.395,2.743,1.395,4.279
			c0,1.316-0.232,2.605-0.697,3.867c-0.466,1.262-1.218,2.386-2.258,3.374c-1.04,0.987-2.407,1.783-4.104,2.386
			c-1.697,0.604-3.776,0.905-6.239,0.905c-0.821,0-1.778-0.137-2.873-0.412s-2.161-0.631-3.202-1.069
			c-1.039-0.439-1.969-0.96-2.79-1.563c-0.821-0.603-1.368-1.207-1.642-1.81c0.711-1.481,1.066-3.126,1.066-4.937
			c0-1.426-0.259-2.77-0.779-4.031c-0.52-1.262-1.231-2.373-2.135-3.333c-0.902-0.959-1.983-1.713-3.242-2.262
			c-1.259-0.548-2.655-0.823-4.188-0.823c-1.478,0-2.872,0.288-4.186,0.864c-1.313,0.576-2.463,1.385-3.448,2.428
			c-0.985,1.042-1.751,2.29-2.299,3.743c-0.547,1.454-0.82,3.031-0.82,4.731c0,3.017,0.807,5.732,2.421,8.146
			c1.615,2.414,3.804,4.471,6.567,6.171c2.765,1.7,5.952,3.003,9.564,3.908C423.398,245.116,427.229,245.568,431.279,245.568z
			 M507.115,245.568c6.567,0,12.451-1.371,17.649-4.114c5.199-2.742,9.619-6.432,13.258-11.066c3.64-4.635,6.431-9.997,8.374-16.086
			c1.942-6.088,2.914-12.479,2.914-19.171c0-5.979-0.89-11.299-2.668-15.962c-1.778-4.662-4.188-8.598-7.224-11.807
			c-3.038-3.209-6.622-5.65-10.755-7.323c-4.132-1.673-8.523-2.509-13.176-2.509c-6.458,0-12.3,1.33-17.526,3.991
			c-5.227,2.66-9.672,6.253-13.339,10.778s-6.486,9.792-8.456,15.798c-1.971,6.006-2.955,12.383-2.955,19.129
			c0,5.266,0.698,10.231,2.093,14.893c1.396,4.663,3.503,8.722,6.321,12.177s6.349,6.198,10.59,8.228
			C496.457,244.554,501.424,245.568,507.115,245.568z M497.306,189.454c0.794-4.114,1.915-7.707,3.366-10.779
			c1.45-3.071,3.201-5.512,5.253-7.322c2.053-1.811,4.364-2.688,6.937-2.633c1.861,0.055,3.503,0.576,4.926,1.563
			c1.423,0.988,2.627,2.29,3.612,3.908c0.985,1.618,1.792,3.497,2.422,5.636c0.629,2.14,1.122,4.375,1.478,6.706
			c0.355,2.332,0.588,4.662,0.697,6.994c0.109,2.331,0.138,4.511,0.082,6.541c-0.055,2.304-0.232,4.744-0.534,7.323
			c-0.3,2.578-0.738,5.142-1.312,7.693c-0.574,2.551-1.286,4.991-2.134,7.323c-0.849,2.331-1.874,4.375-3.078,6.13
			s-2.572,3.167-4.104,4.237c-1.533,1.07-3.258,1.604-5.173,1.604c-2.682,0-4.897-1.028-6.649-3.085
			c-1.751-2.057-3.146-4.649-4.187-7.775s-1.765-6.555-2.176-10.285c-0.41-3.73-0.614-7.296-0.614-10.696
			C496.116,197.929,496.512,193.568,497.306,189.454z M563.455,240.303c2.764,1.7,5.951,3.003,9.563,3.908s7.442,1.357,11.493,1.357
			c4.816,0,9.331-0.645,13.545-1.934c4.214-1.289,7.853-3.085,10.918-5.389c3.064-2.304,5.486-5.046,7.266-8.228
			c1.778-3.182,2.667-6.665,2.667-10.45c0-3.51-0.779-6.623-2.339-9.339c-1.56-2.714-3.558-5.169-5.993-7.363
			c-2.435-2.194-5.13-4.169-8.086-5.924c-2.955-1.755-5.827-3.429-8.619-5.02c-3.447-1.975-6.198-3.606-8.25-4.896
			c-2.053-1.289-3.626-2.455-4.721-3.497c-1.095-1.042-1.82-2.016-2.176-2.921s-0.533-1.934-0.533-3.085
			c0-1.371,0.37-2.619,1.108-3.744c0.739-1.124,1.669-2.057,2.791-2.797c1.122-0.74,2.339-1.316,3.653-1.728
			c1.312-0.412,2.572-0.617,3.776-0.617c0.711,0,1.504,0.068,2.381,0.205c0.875,0.138,1.737,0.343,2.585,0.618
			c0.849,0.274,1.642,0.617,2.381,1.029c0.739,0.411,1.328,0.918,1.765,1.522c-0.711,1.481-1.066,3.099-1.066,4.854
			c0,1.372,0.246,2.674,0.739,3.909c0.492,1.234,1.189,2.331,2.092,3.291c0.903,0.96,1.984,1.714,3.243,2.263
			c1.259,0.549,2.654,0.822,4.187,0.822c1.642,0,3.106-0.301,4.392-0.905c1.287-0.604,2.382-1.413,3.284-2.427
			s1.602-2.194,2.093-3.538c0.493-1.344,0.739-2.756,0.739-4.237c0-2.852-0.835-5.43-2.504-7.734s-3.845-4.251-6.526-5.842
			s-5.705-2.811-9.071-3.661c-3.365-0.85-6.744-1.275-10.138-1.275c-5.145,0-9.7,0.713-13.668,2.14
			c-3.969,1.426-7.307,3.291-10.016,5.595s-4.761,4.896-6.156,7.775c-1.396,2.88-2.094,5.801-2.094,8.763s0.465,5.595,1.395,7.898
			c0.932,2.304,2.34,4.485,4.229,6.542c1.888,2.057,4.296,4.073,7.225,6.047c2.927,1.975,6.39,4.114,10.385,6.418
			c2.188,1.262,4.31,2.482,6.361,3.661c2.053,1.18,3.858,2.359,5.418,3.538c1.561,1.18,2.805,2.427,3.735,3.744
			c0.931,1.317,1.396,2.743,1.396,4.279c0,1.316-0.233,2.605-0.698,3.867c-0.466,1.262-1.218,2.386-2.258,3.374
			c-1.039,0.987-2.407,1.783-4.104,2.386c-1.697,0.604-3.776,0.905-6.238,0.905c-0.821,0-1.779-0.137-2.874-0.412
			s-2.162-0.631-3.201-1.069c-1.041-0.439-1.971-0.96-2.791-1.563c-0.822-0.603-1.368-1.207-1.642-1.81
			c0.71-1.481,1.066-3.126,1.066-4.937c0-1.426-0.261-2.77-0.779-4.031c-0.521-1.262-1.232-2.373-2.135-3.333
			c-0.903-0.959-1.983-1.713-3.243-2.262c-1.258-0.548-2.653-0.823-4.187-0.823c-1.478,0-2.873,0.288-4.187,0.864
			c-1.313,0.576-2.463,1.385-3.447,2.428c-0.985,1.042-1.752,2.29-2.299,3.743c-0.548,1.454-0.821,3.031-0.821,4.731
			c0,3.017,0.808,5.732,2.422,8.146C558.503,236.545,560.691,238.603,563.455,240.303z M394.728,323.504
			c-1.833,1.07-3.625,1.879-5.376,2.428c-1.752,0.549-3.503,0.891-5.254,1.029c-1.752,0.137-3.503,0.205-5.254,0.205
			c-3.612,0-6.759,0.232-9.441,0.697c-2.682,0.463-5.157,1.324-7.429,2.582s-4.446,3.008-6.526,5.248
			c-2.079,2.242-4.323,5.139-6.731,8.691l5.583,5.984c1.969-1.537,3.912-2.783,5.827-3.744c1.916-0.959,3.735-1.729,5.46-2.303
			c1.724-0.576,3.311-0.975,4.761-1.193c1.45-0.221,2.723-0.33,3.818-0.33h0.081c-0.602,3.852-1.601,7.562-2.996,11.139
			c-1.396,3.574-3.38,6.752-5.952,9.529c-2.571,2.777-5.786,5.006-9.646,6.684c-3.858,1.678-8.495,2.516-13.914,2.516
			c-3.284,0-6.417-0.549-9.399-1.645c-2.982-1.098-5.555-2.717-7.717-4.855c-2.161-2.139-3.831-4.785-5.008-7.939
			c-1.176-3.154-1.628-6.789-1.354-10.902c0.22-3.566,1.013-6.83,2.381-9.791s3.202-5.498,5.5-7.611
			c2.299-2.111,5.049-3.73,8.25-4.854c3.201-1.125,6.773-1.633,10.713-1.523l5.829,0.166l0.656-11.85
			c-2.954,0.109-4.815,0.166-5.581,0.166c-4.05,0-7.403-0.617-10.057-1.852c-2.655-1.234-4.748-2.811-6.28-4.732
			c-1.533-1.92-2.586-4.045-3.161-6.376c-0.574-2.331-0.807-4.595-0.697-6.788c0.164-3.127,0.752-5.91,1.765-8.352
			c1.013-2.44,2.312-4.497,3.9-6.171c1.586-1.673,3.365-2.962,5.335-3.866c1.971-0.905,3.996-1.387,6.075-1.441
			c2.846-0.055,5.227,0.275,7.142,0.988c1.916,0.713,3.53,1.728,4.843,3.045c-0.383,0.438-0.711,0.986-0.984,1.646
			c-0.274,0.658-0.506,1.356-0.698,2.098c-0.19,0.741-0.327,1.454-0.41,2.139c-0.082,0.687-0.123,1.276-0.123,1.77
			c0.164,3.071,1.19,5.513,3.079,7.323c1.888,1.809,4.419,2.715,7.594,2.715c1.696,0,3.214-0.316,4.556-0.946
			c1.341-0.63,2.489-1.494,3.446-2.592c0.959-1.097,1.697-2.345,2.218-3.743c0.52-1.398,0.779-2.894,0.779-4.484
			c0-2.963-0.766-5.746-2.299-8.352c-1.532-2.605-3.734-4.868-6.607-6.788c-2.874-1.919-6.362-3.442-10.468-4.566
			c-4.104-1.125-8.729-1.714-13.873-1.769c-5.362-0.055-10.467,0.644-15.31,2.098c-4.843,1.453-9.085,3.607-12.724,6.459
			c-3.64,2.852-6.527,6.363-8.661,10.531c-2.135,4.17-3.202,8.941-3.202,14.316c0,2.743,0.521,5.321,1.561,7.734
			c1.04,2.414,2.531,4.58,4.474,6.5s4.296,3.58,7.06,4.979s5.87,2.428,9.318,3.086v0.164c-4.544,1.098-8.716,2.701-12.52,4.814
			c-3.804,2.111-7.074,4.633-9.811,7.568c-2.735,2.936-4.87,6.199-6.402,9.791c-1.532,3.594-2.299,7.445-2.299,11.561
			c0,5.76,1.149,10.764,3.447,15.016c2.3,4.252,5.446,7.775,9.441,10.572c3.995,2.799,8.688,4.869,14.078,6.213
			s11.206,2.016,17.445,2.016c5.69,0,10.781-0.619,15.269-1.855s8.441-2.912,11.862-5.027c3.42-2.117,6.348-4.588,8.783-7.42
			c2.436-2.828,4.46-5.812,6.075-8.945c1.614-3.131,2.859-6.334,3.734-9.604c0.876-3.271,1.478-6.416,1.807-9.439
			c2.955-0.383,5.514-1.037,7.676-1.969c2.161-0.928,4.091-2.102,5.787-3.525c1.696-1.42,3.242-3.127,4.638-5.123
			c1.396-1.994,2.806-4.25,4.229-6.764l-6.485-5.574C398.437,320.967,396.562,322.436,394.728,323.504z M475.1,300.549
			c-2.216-1.728-4.87-3.004-7.963-3.826s-6.498-1.234-10.22-1.234c-4.926,0-9.4,0.768-13.422,2.304
			c-4.022,1.536-7.607,3.593-10.754,6.171c-3.147,2.578-5.87,5.582-8.168,9.01c-2.3,3.428-4.201,7.035-5.705,10.82
			c-1.506,3.785-2.614,7.652-3.325,11.602c-0.712,3.949-1.067,7.734-1.067,11.354c0,6.254,0.779,11.697,2.34,16.334
			c1.56,4.633,3.803,8.473,6.731,11.518c2.928,3.045,6.458,5.307,10.589,6.789c4.132,1.48,8.771,2.193,13.915,2.139
			c3.284,0,6.54-0.385,9.769-1.152c3.229-0.768,6.375-2.152,9.44-4.154c3.064-2.004,6.122-4.668,8.825-8.27
			c7.336-9.781-1.683-18.184-1.683-18.184c-1.532,3.512-3.271,6.334-5.213,8.475c-1.943,2.139-3.913,3.785-5.911,4.938
			c-1.997,1.15-3.94,1.918-5.828,2.303c-1.889,0.385-3.517,0.576-4.885,0.576c-1.806,0-3.612-0.344-5.418-1.027
			c-1.806-0.688-3.42-1.92-4.843-3.703s-2.586-4.225-3.489-7.324s-1.354-7.033-1.354-11.807c3.283-0.494,6.677-1.084,10.179-1.768
			c3.503-0.688,6.91-1.537,10.221-2.553c3.312-1.014,6.431-2.221,9.358-3.619s5.5-3.031,7.717-4.896
			c2.216-1.865,3.968-4.004,5.254-6.418c1.286-2.412,1.93-5.156,1.93-8.227c0-3.676-0.616-6.857-1.848-9.545
			S477.316,302.276,475.1,300.549z M461.309,320.377c-0.848,1.947-2.23,3.744-4.146,5.391c-1.915,1.645-4.446,3.113-7.593,4.4
			c-3.146,1.289-6.991,2.346-11.534,3.17c0.329-3.129,0.862-6.281,1.602-9.463c0.738-3.182,1.778-6.047,3.12-8.598
			c1.34-2.551,3.009-4.635,5.006-6.254s4.42-2.428,7.266-2.428c0.821,0,1.67,0.15,2.545,0.453c0.875,0.301,1.669,0.768,2.381,1.398
			c0.711,0.631,1.3,1.426,1.765,2.387c0.465,0.959,0.725,2.125,0.779,3.496C462.553,316.414,462.156,318.432,461.309,320.377z
			 M598.902,317.375c0,0.986,0.178,2.07,0.533,3.25c0.356,1.18,0.944,2.275,1.765,3.291c0.822,1.016,1.902,1.852,3.243,2.51
			s2.969,0.959,4.885,0.904c3.283-0.109,5.883-1.205,7.798-3.291c1.916-2.084,2.874-4.826,2.874-8.229
			c0-3.07-0.698-5.855-2.094-8.351s-3.298-4.635-5.705-6.417c-2.407-1.783-5.281-3.154-8.62-4.113
			c-3.338-0.961-6.922-1.441-10.754-1.441c-4.651,0-8.906,0.768-12.766,2.304c-3.857,1.536-7.319,3.593-10.384,6.171
			s-5.746,5.582-8.045,9.01c-2.298,3.428-3.101,5.191-5.705,10.82c-0.459,1.334-0.848,2.061-1.273,3.165l-12.872,29.663
			c-1.313,2.305-2.722,4.17-4.228,5.596c-1.505,1.426-2.969,2.51-4.392,3.25s-2.722,1.234-3.899,1.48
			c-1.177,0.248-2.093,0.371-2.75,0.371c-1.806,0-3.242-0.385-4.31-1.154c-1.067-0.768-1.874-1.717-2.422-2.842
			c-0.547-1.127-0.89-2.336-1.025-3.623c-0.138-1.293-0.206-2.488-0.206-3.588c0-1.26,0.055-2.922,0.164-4.984
			c0.109-2.059,0.273-4.365,0.492-6.92c0.22-2.555,0.466-5.301,0.739-8.24c0.274-2.939,0.574-5.93,0.902-8.982
			c0.329-3.047,0.657-6.094,0.985-9.143c0.329-3.053,0.657-5.92,0.985-8.613l21.098-0.326l1.067-11.521h-21.098l3.448-25.424
			h-11.411c-0.712,3.73-1.71,7.145-2.996,10.243s-2.996,5.773-5.131,8.021c-2.134,2.25-4.72,4.005-7.758,5.267
			c-3.037,1.262-6.636,1.893-10.795,1.893l-1.478,12.178c1.587,0,3.64-0.014,6.156-0.041c2.519-0.027,4.927-0.068,7.226-0.123
			c-0.438,4.062-0.862,8.236-1.273,12.52c-0.41,4.283-0.78,8.482-1.108,12.602c-0.328,4.121-0.615,8.045-0.861,11.779
			c-0.246,3.736-0.424,7.031-0.533,9.883c-0.109,3.516,0.081,6.908,0.574,10.176c0.492,3.266,1.505,6.178,3.037,8.73
			c1.533,2.553,3.722,4.6,6.567,6.137c2.847,1.539,6.566,2.307,11.164,2.307c6.349,0,12.245-1.77,17.691-5.307
			c5.444-3.539,10.056-8.9,13.832-16.086l2.192-4.393l0.001-0.009c0.365,1.874,0.83,3.646,1.402,5.306
			c1.588,4.607,3.83,8.42,6.731,11.438c2.9,3.018,6.376,5.266,10.426,6.746c4.05,1.482,8.537,2.25,13.463,2.305
			c3.503-0.055,6.923-0.521,10.261-1.398c3.339-0.879,6.568-2.4,9.688-4.566c3.119-2.168,6.07-5.074,8.906-8.68
			c8.463-10.762-1.765-18.432-1.765-18.432c-1.75,3.932-3.652,7.082-5.705,9.457c-2.053,2.377-4.104,4.178-6.156,5.406
			s-4.063,2.008-6.034,2.334c-1.97,0.33-3.721,0.41-5.254,0.246c-1.751-0.164-3.488-0.725-5.213-1.686
			c-1.724-0.957-3.256-2.451-4.598-4.477c-1.34-2.027-2.407-4.615-3.201-7.768c-0.793-3.148-1.108-7.023-0.944-11.625
			c0.056-2.248,0.22-4.684,0.493-7.314c0.273-2.629,0.671-5.271,1.189-7.928c0.521-2.656,1.219-5.217,2.094-7.682
			c0.875-2.467,1.984-4.645,3.325-6.535c1.341-1.889,2.914-3.41,4.721-4.559c1.806-1.15,3.912-1.727,6.32-1.727
			c1.97,0,3.681,0.37,5.131,1.111c1.45,0.74,2.395,1.633,2.832,2.674c-0.602,1.098-1.025,2.291-1.272,3.578
			C599.025,315.248,598.902,316.387,598.902,317.375z"/>
	</g>
</g>
</svg>
