<?xml version="1.0" encoding="utf-8"?>
<!-- Generator: Adobe Illustrator 16.0.4, SVG Export Plug-In . SVG Version: 6.00 Build 0)  -->
<!DOCTYPE svg PUBLIC "-//W3C//DTD SVG 1.1//EN" "http://www.w3.org/Graphics/SVG/1.1/DTD/svg11.dtd">
<svg version="1.1" id="icone-logo-g1" xmlns="http://www.w3.org/2000/svg" xmlns:xlink="http://www.w3.org/1999/xlink" x="0px" y="0px"
	 width="620px" height="500px" viewBox="0 0 620 500" style="enable-background:new 0 0 620 500;" xml:space="preserve">
<path style="fill-rule:evenodd;clip-rule:evenodd;" d="M10,194.101V325.25C10,394.16,69.007,450,141.904,450h263.275V211.828
	h-146.54v118.634h-69.597c-18.21,0-32.997-13.978-32.997-31.196V183.584c0-17.189,8.942-31.192,27.14-31.192h117.735l65.945-88.801
	H141.904C69.007,63.591,10,125.174,10,194.101z M463.734,183.331V450H610V94.201C610,76.983,595.244,63,577.033,63h-144.2
	l-65.967,89.15h63.895C448.97,152.15,463.734,166.124,463.734,183.331z"/>
</svg>
