<?xml version="1.0" encoding="utf-8"?>
<!-- Generator: Adobe Illustrator 16.0.4, SVG Export Plug-In . SVG Version: 6.00 Build 0)  -->
<!DOCTYPE svg PUBLIC "-//W3C//DTD SVG 1.1//EN" "http://www.w3.org/Graphics/SVG/1.1/DTD/svg11.dtd">
<svg version="1.1" id="icone-logo-ge" xmlns="http://www.w3.org/2000/svg" xmlns:xlink="http://www.w3.org/1999/xlink" x="0px" y="0px"
	 width="620px" height="500px" viewBox="0 0 620 500" style="enable-background:new 0 0 620 500;" xml:space="preserve">
<path d="M228.619,98.333C197.574,67.899,175.142,60,140.581,60C60.338,60,0,128.21,0,219.516
	C0,309.691,57.997,373.82,138.244,373.82c36.898,0,58.761-6.648,87.457-38.77v7.895c0,31.004-2.334,42.828-12.296,57.486
	c-13.483,18.598-44.116,30.436-71.073,30.436c-20.491,0-44.512-5.07-65.605-16.342l-16.978-9.012
	c-5.867-2.82-12.306-4.52-17.564-4.52c-17.581,0-33.979,15.221-33.979,32.125C8.205,464.123,72.036,494,138.816,494
	c49.217,0,98.604-16.344,124.968-45.088c24.607-26.496,35.728-60.311,35.728-108.777V91.572c0-16.911-16.411-30.429-36.907-30.429
	c-18.747,0-33.985,13.518-33.985,30.429V98.333z M149.382,126.518c22.841,0,48.192,11.27,61.087,28.747
	c11.146,15.779,15.835,33.246,15.835,64.251c0,29.875-4.69,46.217-17.004,62.57c-12.892,16.895-38.245,27.043-59.347,27.043
	c-43.922,0-73.8-37.197-73.8-91.875C76.154,163.146,106.032,126.518,149.382,126.518z"/>
<path d="M583.098,239.678c26.935,0,36.902-8.45,36.902-32.118c0-31.564-16.406-72.59-38.672-98.517
	C554.977,77.48,514.447,60,471.677,60c-84.917,0-149.261,68.771-149.261,158.396c0,91.296,64.344,155.554,157.475,155.554
	c45.691,0,93.234-15.785,121.366-41.139c8.203-7.908,12.886-17.48,12.886-25.932c0-16.912-12.886-29.875-32.245-29.875
	c-8.772,0-15.899,2.248-35.228,14.648c-21.088,12.969-41.013,18.596-62.687,18.596c-28.112,0-54.488-11.822-66.186-31.555
	c-5.278-9.012-11.136-23-15.829-39.336L583.098,239.678z M472.267,119.566c38.077,0,61.505,25.169,70.291,74.758H400.812
	C408.999,145.862,434.776,119.566,472.267,119.566z"/>
</svg>
