<?xml version="1.0" encoding="utf-8"?>
<!-- Generator: Adobe Illustrator 16.0.4, SVG Export Plug-In . SVG Version: 6.00 Build 0)  -->
<!DOCTYPE svg PUBLIC "-//W3C//DTD SVG 1.1//EN" "http://www.w3.org/Graphics/SVG/1.1/DTD/svg11.dtd">
<svg version="1.1" id="icone-logo-globotv" xmlns="http://www.w3.org/2000/svg" xmlns:xlink="http://www.w3.org/1999/xlink" x="0px" y="0px"
	 width="1320px" height="500px" viewBox="0 0 1320 500" style="enable-background:new 0 0 1320 500;" xml:space="preserve">
<path d="M187.6,138.547c-17.016,0-26.8,9.359-30.628,25.523c-11.486-18.717-35.308-28.076-56.153-28.076
	C39.137,135.995,0,193.423,0,255.105c0,60.832,30.204,117.408,94.438,117.408c28.076,0,48.92-10.209,61.683-28.928h0.851v14.465
	c0,31.053-22.12,48.496-51.898,48.496c-35.308,0-57.003-19.145-76.572-19.145c-11.911,0-24.673,15.314-24.673,26.801
	c0,33.607,71.467,45.941,96.565,45.941c69.765,0,117.834-37.01,117.834-110.602V172.579
	C218.228,152.16,205.466,138.547,187.6,138.547z M108.901,316.363c-31.905,0-47.644-29.779-47.644-62.535
	c0-28.5,15.739-61.681,47.644-61.681c33.606,0,48.07,34.031,48.07,63.808C156.971,285.734,141.657,316.363,108.901,316.363z
	 M265.871,39.855c-17.867,0-30.629,13.613-30.629,34.032V335.93c0,20.42,12.762,34.031,30.629,34.031
	c17.866,0,30.628-13.611,30.628-34.031V73.887C296.5,53.468,283.737,39.855,265.871,39.855z M420.709,135.995
	c-64.66,0-109.752,56.578-109.752,118.685c0,63.811,43.815,117.834,109.752,117.834c65.936,0,109.751-54.023,109.751-117.834
	C530.461,192.572,485.369,135.995,420.709,135.995z M420.709,316.363c-33.181,0-48.495-32.332-48.495-61.684
	c0-29.352,14.889-62.532,48.495-62.532s48.495,33.18,48.495,62.532C469.204,284.031,453.891,316.363,420.709,316.363z
	 M658.934,135.995c-21.271,0-42.114,7.232-58.279,21.27V73.887c0-20.419-12.762-34.032-30.629-34.032
	c-17.866,0-30.628,13.613-30.628,34.032V335.93c0,20.42,12.762,34.031,30.628,34.031c17.016,0,26.8-9.357,30.629-25.523
	c11.485,18.719,35.308,28.076,56.151,28.076c61.684,0,100.819-57.428,100.819-115.281
	C757.625,197.677,724.87,135.995,658.934,135.995z M648.724,316.363c-33.606,0-48.069-34.033-48.069-63.812
	c0-29.775,15.313-60.403,48.069-60.403c31.904,0,47.644,33.606,47.644,62.532C696.367,283.182,680.628,316.363,648.724,316.363z
	 M875.883,135.995c-64.659,0-109.752,56.578-109.752,118.685c0,63.811,43.816,117.834,109.752,117.834
	c65.937,0,109.753-54.023,109.753-117.834C985.636,192.572,940.544,135.995,875.883,135.995z M875.883,316.363
	c-33.18,0-48.495-32.332-48.495-61.684c0-29.352,14.89-62.532,48.495-62.532c33.606,0,48.496,33.18,48.496,62.532
	C924.379,284.031,909.063,316.363,875.883,316.363z"/>
<path d="M1006.907,334.229c-10.208,0-19.144,8.508-19.144,18.293c0,10.209,8.936,18.717,19.144,18.717
	c10.209,0,18.718-8.508,18.718-18.717C1025.625,342.736,1017.116,334.229,1006.907,334.229z M1092.414,352.521
	c-14.462,0-21.269-11.486-21.269-28.076V181.512h41.689v-19.568h-41.689v-56.152H1048.6v56.152h-34.031v19.568h34.031v146.335
	c0,28.076,13.188,44.666,40.412,44.666c17.016,0,26.8-5.104,34.883-12.762l-8.509-17.016
	C1110.707,347.842,1102.199,352.521,1092.414,352.521z M1294.901,161.944l-74.019,179.515l-74.869-179.515h-24.673l86.779,205.466
	h25.099L1320,161.944H1294.901z"/>
</svg>
