<?xml version="1.0" encoding="utf-8"?>
<!-- Generator: Adobe Illustrator 16.0.4, SVG Export Plug-In . SVG Version: 6.00 Build 0)  -->
<!DOCTYPE svg PUBLIC "-//W3C//DTD SVG 1.1//EN" "http://www.w3.org/Graphics/SVG/1.1/DTD/svg11.dtd">
<svg version="1.1" id="icone-logo-globosatplay" xmlns="http://www.w3.org/2000/svg" xmlns:xlink="http://www.w3.org/1999/xlink" x="0px" y="0px"
	 width="620px" height="500px" viewBox="0 0 620 500" style="enable-background:new 0 0 620 500;" xml:space="preserve">
<g>
	<g>
		<path d="M121.038,208.53H91.676l44.918-74.481h-28.882L83.298,174.63H48.24v21.03h23.897c-4.556,6.769-10.736,11.604-21.94,11.536
			c-12.949-0.074-25.291-8.602-25.291-26.52c0-15.212,13.118-25.417,24.771-25.411c8.903,0.008,19.768,2.663,27.124,14.871
			l13.114-21.716c-10.912-11.567-23.01-17.01-41.675-17.01C21.248,131.984,0.068,155.098,0,180.019
			c0,30.5,24.425,50.146,49.016,50.146h72.022V208.53z M292.469,200.746c0-8.781-4.214-17.33-12.384-21.595
			c6.416-4.726,8.851-10.622,8.804-19.407c-0.065-12.105-8.256-25.696-29.795-25.696h-31.972v96.116h34.961
			C281.556,230.165,292.469,217.346,292.469,200.746z M251.672,155.068l6.911,0.005c3.604,0.003,7.873,2.751,7.882,7.832
			c0.006,4.904-3.339,8.396-7.981,8.396h-6.812V155.068z M251.672,208.921v-19.186h7.732c5.814,0,9.868,4.409,9.865,9.661
			c0,4.837-4.031,9.524-9.309,9.524H251.672z M345.788,232.829c27.915,0,50.696-22.792,50.696-50.722
			c0-27.929-22.781-50.72-50.696-50.72c-27.918,0-50.706,22.791-50.706,50.72C295.082,210.037,317.87,232.829,345.788,232.829z
			 M345.788,156.387c14.153,0,25.707,11.556,25.707,25.72c0,14.16-11.554,25.721-25.707,25.721
			c-14.156,0-25.713-11.562-25.713-25.721C320.075,167.943,331.632,156.387,345.788,156.387z M171.835,131.387
			c-27.92,0-50.704,22.791-50.704,50.72c0,27.93,22.784,50.722,50.704,50.722c27.918,0,50.696-22.792,50.696-50.722
			C222.531,154.178,199.753,131.387,171.835,131.387z M171.835,207.828c-14.159,0-25.709-11.562-25.709-25.721
			c0-14.164,11.55-25.72,25.709-25.72c14.157,0,25.704,11.556,25.704,25.72C197.539,196.267,185.992,207.828,171.835,207.828z
			 M434.339,232.809c19.273,0,34.061-9.507,34.061-29.977c0-15.318-9.898-22.057-22.837-27.998
			c-4.092-1.847-16.899-6.865-19.277-10.828c-0.787-1.189-0.92-2.642-0.92-4.096c0-4.621,4.225-7.659,8.577-7.659
			c6.339,0,8.187,4.095,8.979,9.506h24.687c-0.264-7.655-1.451-13.072-6.469-19.277c-6.199-7.527-16.896-11.092-26.4-11.092
			c-16.634,0-34.191,10.564-34.191,28.786c0,15.322,11.226,22.717,23.894,27.999c2.907,1.189,5.809,2.378,8.713,3.699
			c5.149,2.247,10.432,4.356,10.432,10.697c0,5.282-4.358,9.376-9.507,9.376c-7.262,0-10.164-7.002-10.164-13.338h-24.819v3.169
			C399.095,222.641,414.671,232.809,434.339,232.809z M556.632,134.048v21.109h19.28v75.008h24.945v-75.008H620v-21.109H556.632z
			 M460.668,230.168h28.88l8.012-13.296h29.502v13.279h24.983v-96.067h-33.43L460.668,230.168z M527.062,198.595h-18.47
			l18.47-30.628V198.595z M151.361,267.031c-27.933,0-50.734,22.803-50.734,50.748c0,27.941,22.802,50.748,50.734,50.748
			c27.931,0,50.723-22.807,50.723-50.748C202.084,289.834,179.292,267.031,151.361,267.031z M171.105,323.119l-28.522,16.498
			c-1.455,0.848-2.839,1.246-4.062,1.252h-0.073c-3.012-0.018-5.09-2.432-5.09-6.584v-33.01c0-4.145,2.076-6.562,5.08-6.588h0.1
			c1.222,0.012,2.597,0.414,4.046,1.254l28.522,16.504C176.187,315.383,176.187,320.184,171.105,323.119z M284.526,275.77
			c-2.591-2.738-5.792-4.893-9.604-6.469c-3.814-1.57-8.159-2.355-13.035-2.355h-38.111v101.496h8.672v-42.148h29.431
			c4.879,0,9.198-0.785,12.964-2.361c3.758-1.57,6.963-3.729,9.605-6.469c2.642-2.738,4.649-5.908,6.024-9.51
			c1.37-3.6,2.059-7.379,2.059-11.336s-0.688-7.734-2.059-11.336C289.098,281.68,287.115,278.51,284.526,275.77z M281.655,305.443
			c-1.064,2.639-2.586,4.922-4.562,6.848c-1.978,1.928-4.337,3.422-7.074,4.49c-2.738,1.062-5.781,1.596-9.126,1.596h-28.444v-43.52
			h28.444c3.345,0,6.388,0.533,9.126,1.596c2.737,1.066,5.097,2.564,7.074,4.49c1.977,1.93,3.498,4.236,4.562,6.924
			c1.064,2.689,1.596,5.605,1.596,8.75C283.251,299.863,282.72,302.807,281.655,305.443z M396.967,266.945l-38.348,93.742h-48.694
			v-93.742h-8.684v101.668h64.188l10.057-24.998h53.778l10.054,24.998h10.056l-41.591-101.668H396.967z M378.382,335.689
			l23.918-59.447l24.068,59.447H378.382z M474.655,316.926l-34.208-49.994h-10.512l40.376,58.227V368.6h8.686v-43.441l40.376-58.227
			h-10.514L474.655,316.926z"/>
	</g>
</g>
</svg>
