<?xml version="1.0" encoding="utf-8"?>
<!-- Generator: Adobe Illustrator 16.0.4, SVG Export Plug-In . SVG Version: 6.00 Build 0)  -->
<!DOCTYPE svg PUBLIC "-//W3C//DTD SVG 1.1//EN" "http://www.w3.org/Graphics/SVG/1.1/DTD/svg11.dtd">
<svg version="1.1" id="Layer_1" xmlns="http://www.w3.org/2000/svg" xmlns:xlink="http://www.w3.org/1999/xlink" x="0px" y="0px"
	 width="1320px" height="500px" viewBox="0 0 1320 500" style="enable-background:new 0 0 1320 500;" xml:space="preserve">
<g>
	<path d="M216.166,249.717h-72.218c-7.994,0-14.886,2.83-20.478,8.412c-5.597,5.581-8.435,12.456-8.435,20.438
		c0,7.991,2.844,14.847,8.453,20.378c5.591,5.516,12.476,8.312,20.46,8.312h29.314c-4.498,6.39-9.965,11.74-16.333,15.976
		c-8.944,6.019-18.689,9.071-28.958,9.071c-18.023,0-32.806-5.986-45.194-18.298c-12.383-12.309-18.403-27.03-18.403-45.007
		c0-17.97,6.018-32.662,18.396-44.916c12.39-12.263,27.174-18.224,45.201-18.224c15.384,0,28.492,4.695,40.075,14.357
		c5.971,4.966,12.915,7.484,20.639,7.484c8.939,0,16.631-3.12,22.86-9.273c6.242-6.169,9.408-13.828,9.408-22.767
		c0-10.057-4.023-18.48-11.972-25.053c-23.568-19.341-50.824-29.148-81.01-29.148c-35.769,0-66.364,12.405-90.937,36.87
		C12.46,202.8,0,233.305,0,268.999c0,35.699,12.459,66.232,37.03,90.751c24.571,24.519,55.167,36.949,90.941,36.949
		c30.599,0,58.039-12.177,81.553-36.193c23.487-23.986,35.395-51.663,35.395-82.259c0-7.882-2.843-14.685-8.45-20.216
		C230.875,252.514,224.045,249.717,216.166,249.717z"/>
	<path d="M385.694,245.972c-5.582-2.559-12.75-5.492-21.5-8.807c-19.315-7.376-28.97-14.454-28.97-21.229
		c0-8.43,5.507-12.647,16.522-12.647c6.184,0,16.143,2.936,29.874,8.809c13.728,5.871,23.387,8.807,28.97,8.807
		c8.6,0,15.765-2.936,21.5-8.807c5.733-5.873,8.603-13.101,8.603-21.683c0-16.712-10.638-29.886-31.913-39.523
		c-16.749-7.526-34.629-11.292-53.639-11.292c-25.2,0-46.323,6.701-63.372,20.101c-18.711,14.455-28.065,33.954-28.065,58.494
		c0,19.124,7.15,35.155,21.454,48.104c10.391,9.337,26.35,18.146,47.883,26.424l4.746,1.807
		c23.337,8.886,35.007,17.165,35.007,24.844c0,9.937-6.778,14.906-20.331,14.906c-7.528,0-18.785-3.537-33.77-10.615
		c-14.986-7.075-26.242-10.614-33.768-10.614c-8.433,0-15.288,3.465-20.557,10.389c-4.819,6.175-7.228,13.628-7.228,22.358
		c0,18.519,11.09,32.748,33.271,42.687c17.2,7.677,36.286,11.518,57.26,11.518c26.855,0,49.566-7.003,68.125-21.006
		c20.37-15.505,30.554-36.282,30.554-62.333c0-17.615-6.111-32.444-18.332-44.492C419.112,263.439,405.007,254.705,385.694,245.972z
		"/>
	<path d="M605.693,142.31c-27.01,0-47.908,7.678-62.693,23.036V93.301C543,57.768,530.78,40,506.336,40
		c-24.295,0-36.439,17.768-36.439,53.301v249.784c0,35.386,12.144,53.074,36.439,53.074c24.444,0,36.664-17.688,36.664-53.074
		v-83.337c0-37.037,12.938-55.558,38.816-55.558c15.797,0,26.703,5.798,32.721,17.392c4.364,8.434,6.547,21.454,6.547,39.069v82.434
		c0,35.386,12.257,53.074,36.778,53.074c24.516,0,36.778-17.688,36.778-53.074V238.521
		C694.64,174.379,664.991,142.31,605.693,142.31z"/>
	<path d="M1310.724,154.505c-6.19-6.624-14.487-9.938-24.899-9.938c-17.202,0-28.667,10.016-34.402,30.039l-38.473,135.958
		l-33.273-130.765c-5.734-22.585-18.105-33.877-37.113-33.877c-17.352,0-28.594,10.992-33.722,32.975l-31.236,133.699
		l-38.477-133.247c-6.941-23.788-19.463-35.686-37.571-35.686c-10.411,0-18.863,3.389-25.349,10.165
		c-6.488,6.773-9.729,15.434-9.729,25.971c0,5.574,1.356,12.122,4.073,19.65l57.952,161.704
		c9.055,25.294,23.769,37.943,44.14,37.943c22.033,0,35.92-11.893,41.655-35.677l28.314-118.205l30.193,115.902
		c6.48,25.32,21.175,37.979,44.093,37.979c19.294,0,33.158-11.893,41.599-35.685l56.08-159.222
		c3.611-10.237,5.422-18.214,5.422-23.938C1320,169.715,1316.906,161.132,1310.724,154.505z"/>
	<path d="M840.629,140.728c-35.912,0-66.539,12.647-91.887,37.942c-25.35,25.295-38.023,55.863-38.023,91.693
		c0,35.986,12.635,66.589,37.908,91.806C773.898,387.391,804.565,400,840.629,400c36.059,0,66.729-12.609,92.004-37.831
		c25.269-25.217,37.909-55.819,37.909-91.806c0-35.983-12.641-66.585-37.909-91.807C907.358,153.34,876.688,140.728,840.629,140.728
		z M899.032,327.594c-15.914,15.864-35.447,23.907-58.061,23.907c-22.623,0-42.119-8.051-57.943-23.93
		c-15.814-15.86-23.836-35.327-23.836-57.855c0-5.052,4.104-9.146,9.165-9.146c5.062,0,9.165,4.094,9.165,9.146
		c0,17.765,6.054,32.47,18.503,44.956c12.431,12.473,27.133,18.537,44.946,18.537c17.826,0,32.581-6.07,45.106-18.557
		c12.527-12.484,18.616-27.182,18.616-44.937c0-5.052,4.103-9.146,9.166-9.146c5.062,0,9.165,4.094,9.165,9.146
		C923.025,292.256,914.954,311.729,899.032,327.594z"/>
</g>
</svg>
