<?xml version="1.0" encoding="utf-8"?>
<!-- Generator: Adobe Illustrator 16.0.4, SVG Export Plug-In . SVG Version: 6.00 Build 0)  -->
<!DOCTYPE svg PUBLIC "-//W3C//DTD SVG 1.1//EN" "http://www.w3.org/Graphics/SVG/1.1/DTD/svg11.dtd">
<svg version="1.1" id="Layer_1" xmlns="http://www.w3.org/2000/svg" xmlns:xlink="http://www.w3.org/1999/xlink" x="0px" y="0px"
	 width="620px" height="500px" viewBox="0 0 620 500" style="enable-background:new 0 0 620 500;" xml:space="preserve">
<g>
	<g>
		<path d="M139.65,263.311V155.286c0-12.935-8.038-21.576-19.295-21.576c-10.739,0-16.901,5.934-19.332,16.186
			c-7.237-11.862-22.245-17.802-35.398-17.802C26.736,132.094,0,168.513,0,207.628c0,38.578,21.109,70.242,61.61,70.242
			c17.699,0,30.373-6.457,38.424-18.341h0.533v9.171c0,19.704-13.474,30.762-32.255,30.762c-22.258,0-35.934-12.128-48.27-12.128
			c-7.507,0-15.553,9.713-15.553,16.975c0,21.315,45.052,29.146,60.873,29.146C109.353,333.455,139.65,309.98,139.65,263.311z
			 M70.723,242.277c-20.115,0-30.029-14.688-30.029-35.459c0-18.073,9.915-39.111,30.029-39.111
			c21.188,0,29.845,21.576,29.845,40.472C100.567,227.052,91.377,242.277,70.723,242.277z M164.729,282.62
			c11.371,0,19.508-8.722,19.508-21.8V92.93c0-13.083-8.137-21.812-19.508-21.812c-11.389,0-19.515,8.729-19.515,21.812V260.82
			C145.214,273.898,153.339,282.62,164.729,282.62z M259.812,282.077c42.131,0,70.125-34.249,70.125-74.715
			c0-39.389-28.814-75.269-70.125-75.269c-41.325,0-70.13,35.88-70.13,75.269C189.682,247.828,217.69,282.077,259.812,282.077z
			 M259.812,167.707c21.483,0,30.524,21.038,30.524,39.655c0,18.611-9.319,39.115-30.524,39.115
			c-21.206,0-30.985-20.504-30.985-39.115C228.826,188.745,238.338,167.707,259.812,167.707z M373.758,264.291
			c7.239,11.856,22.27,17.786,35.404,17.786c38.895,0,65.641-36.42,65.641-73.099c0-37.774-22.737-76.885-64.296-76.885
			c-13.426,0-25.864,4.596-36.055,13.483v-52.86c0-12.95-8.732-21.599-20.012-21.599c-11.257,0-19.306,8.648-19.306,21.599V258.88
			c0,12.96,8.049,21.576,19.306,21.576C365.175,280.456,371.348,274.526,373.758,264.291z M404.75,167.015
			c20.117,0,30.054,21.304,30.054,39.649c0,18.067-9.937,39.11-30.054,39.11c-21.187,0-30.298-21.576-30.298-40.466
			C374.452,186.431,384.107,167.015,404.75,167.015z M549.686,132.094c-41.414,0-69.361,35.88-69.361,75.269
			c0,40.466,27.124,74.715,69.361,74.715c42.256,0,70.314-34.249,70.314-74.715C620,167.974,591.11,132.094,549.686,132.094z
			 M549.686,245.774c-21.256,0-30.596-20.488-30.596-39.11c0-18.606,9.075-39.649,30.596-39.649
			c21.526,0,31.065,21.043,31.065,39.649C580.751,225.286,570.944,245.774,549.686,245.774z M108.647,389.21
			c-10.874,0-19.251,8.899-19.251,19.84c0,10.924,8.377,19.832,19.251,19.832c10.862,0,19.711-8.908,19.711-19.832
			C128.358,398.109,119.509,389.21,108.647,389.21z M190.727,329.707c10.789,0,18.293,6.605,26.736,6.605
			c7.975,0,12.898-9.196,12.898-16.277c0-16.511-27.91-20.536-41.276-20.536c-35.654,0-60.515,30.447-60.515,64.888
			c0,35.38,24.157,64.393,60.515,64.393c12.187,0,41.276-5.875,41.276-23.335c0-8.029-6.565-14.869-14.549-14.869
			c-3.986,0-15.245,7.074-23.701,7.074c-18.28,0-29.771-16.521-29.771-33.263C162.34,346.934,171.494,329.707,190.727,329.707z
			 M293.17,299.499c-34.594,0-58.715,29.932-58.715,63.807c0,34.792,23.438,65.201,58.715,65.201
			c35.287,0,58.733-30.409,58.733-65.201C351.903,329.431,327.774,299.499,293.17,299.499z M293.17,399.276
			c-17.739,0-25.939-19.956-25.939-35.971c0-16.026,7.966-34.111,25.939-34.111c17.982,0,25.949,18.085,25.949,34.111
			C319.119,379.32,310.931,399.276,293.17,399.276z M492.063,299.499c-11.505,0-26.268,6.376-35.648,17.216
			c-8.925-11.324-20.886-17.216-34.945-17.216c-12.435,0-23.224,5.205-31.433,14.161c-1.174-8.024-6.803-12.738-15.479-12.738
			c-9.85,0-17.07,7.556-17.07,18.88v90.104c0,11.323,6.588,18.863,16.453,18.863c9.836,0,17.087-7.54,17.087-18.863v-59.679
			c0-13.68,6.513-22.648,20.352-22.648c12.2,0,18.684,8.969,18.684,22.648v59.679c0,11.323,6.617,18.863,16.467,18.863
			c9.853,0,17.078-7.54,17.078-18.863v-59.679c0-13.68,8.756-22.648,21.185-22.648c12.196,0,17.967,8.969,17.967,22.648v59.679
			c0,11.323,7.474,18.863,17.312,18.863c9.862,0,16.055-7.54,16.055-18.863v-65.569
			C536.126,314.613,519.507,299.499,492.063,299.499z"/>
	</g>
</g>
</svg>
