<svg version="1.1" class="burguer-icon" xmlns="http://www.w3.org/2000/svg" xmlns:xlink="http://www.w3.org/1999/xlink" x="0px" y="0px"
	 width="34px" height="25px" viewBox="0 0 34 25" enable-background="new 0 0 34 25" xml:space="preserve">
<g>
	<g>
		<path fill-rule="evenodd" clip-rule="evenodd" fill="#FFFFFF" d="M31.5,10.001h-29c-1.381,0-2.5,1.118-2.5,2.499S1.118,15,2.5,15
			h29c1.38,0,2.5-1.119,2.5-2.5S32.88,10.001,31.5,10.001z M31.5,20h-29C1.118,20,0,21.12,0,22.5C0,23.881,1.118,25,2.5,25h29
			c1.38,0,2.5-1.119,2.5-2.5C34,21.12,32.88,20,31.5,20z M2.5,5h29c1.38,0,2.5-1.12,2.5-2.5S32.88,0,31.5,0h-29
			C1.118,0,0,1.119,0,2.5S1.118,5,2.5,5z"/>
	</g>
</g>
</svg>
