<svg version="1.1" class="logo" xmlns="http://www.w3.org/2000/svg" xmlns:xlink="http://www.w3.org/1999/xlink" x="0px" y="0px"
	 width="500px" height="334px" viewBox="0 0 500 334" enable-background="new 0 0 500 334" xml:space="preserve">
<path fill-rule="evenodd" clip-rule="evenodd" fill="#FFFFFF" d="M0,113.15v113.181C0,285.809,49.176,334,109.92,334h219.396
	V128.447H207.201v102.385h-58.002c-15.174,0-27.491-12.068-27.491-26.926v-99.84c0-14.842,7.45-26.918,22.612-26.918h98.119
	l54.95-76.642H109.92C49.176,0.506,0,53.656,0,113.15z M378.113,103.854V334H500V26.926C500,12.069,487.711,0,472.533,0h-120.17
	L297.39,76.937h53.248C365.816,76.937,378.113,88.996,378.113,103.854z"/>
</svg>
