<svg version="1.1" class="lupa-icon" xmlns="http://www.w3.org/2000/svg" xmlns:xlink="http://www.w3.org/1999/xlink" x="0px" y="0px"
	 width="32px" height="32px" viewBox="0 0 32 32" xml:space="preserve">
<path fill-rule="evenodd" clip-rule="evenodd" fill="#999" d="M31.062,31.066c-1.25,1.245-3.273,1.245-4.526,0l-6.256-6.224
	c-2.006,1.187-4.342,1.881-6.845,1.881C6.013,26.724,0,20.739,0,13.359C0,5.981,6.013,0,13.435,0
	c7.421,0,13.438,5.981,13.438,13.359c0,2.582-0.75,4.984-2.023,7.026l6.212,6.179C32.312,27.809,32.312,29.824,31.062,31.066z
	 M13.435,4.172c-5.103,0-9.237,4.115-9.237,9.19c0,5.073,4.134,9.186,9.237,9.186c5.103,0,9.237-4.113,9.237-9.186
	C22.672,8.287,18.537,4.172,13.435,4.172z"/>
</svg>
